<svg height="76" viewBox="0 0 75 76" width="75" xmlns="http://www.w3.org/2000/svg"><g fill="none" fill-rule="evenodd" transform="translate(4 4)"><path d="m.2351018 19.100998 33.6957844-19.08103792 32.9447425 19.26986032v6.7065868h-5.2560898v23.7093812h-56.22222752v-23.7093812h-5.16220958z" fill="#1a1918"/><path d="m33.928479 7.20518962-21.6815209 12.65748508v23.8035928h42.8944431v-23.8035928z" fill="#fff"/><path d="m22.3972575 28.9269461h22.4325629v-5.8562874h-22.4325629z" fill="#1a1918"/><path d="m22.3972575 37.6487026h22.4325629v-5.8562874h-22.4325629z" fill="#1a1918"/><path d="m34.6133234 67.8882236v-7.4622755h3.9421676c2.8156048 0 4.7866886.8502994 4.7866886 3.8730539 0 2.9281437-1.7833233 3.5892216-4.8805688 3.5892216z" fill="#1a1918"/><path d="m36.6766826 62.0287425v4.2506986h1.6894431c1.5955629 0 2.7221258-.2834331 2.7221258-1.9836327 0-1.5113773-1.2204431-2.2670659-2.5343653-2.2670659z" fill="#fff"/><path d="m55.1859341 67.8882236v-7.4622755h5.4438503c2.0649641 0 2.9098863.661477 2.9098863 2.3616767 0 1.2279441-.6571617 1.7948103-2.0653653 1.9836327l2.1592455 3.1169661h-2.2527246l-2.1588443-3.1169661h-1.9710838v3.1169661z" fill="#1a1918"/><path d="m60.3389162 62.0399202h-3.0976467v1.1337325h3.0037664c1.0326827 0 1.3139222 0 1.3139222-.5668663 0-.4722555-.375521-.5668662-1.2200419-.5668662" fill="#fff"/><path d="m23.2967425 60.4259481v7.4622755h1.9710838v-4.5337326l3.9421677 4.5337326h2.3466048v-7.4622755h-1.9710838v4.6283433l-3.9421677-4.6283433z" fill="#1a1918"/><path d="m3.94537725 60.4259481v7.4622755h7.41533535v-1.6055889l-5.34997009-.0946107v-5.7620759z" fill="#1a1918"/><path d="m13.4838503 67.8882236h7.2271737v-1.6055889h-5.0687306v-1.605988h4.2238084v-1.510978h-4.2238084v-1.1337326h5.0687306v-1.605988h-7.2271737z" fill="#1a1918"/><path d="m45.6526766 60.4259481v7.4622755l7.1332935-.0942116v-1.5113773h-5.0683294v-1.605988h4.3172874v-1.510978h-4.3172874v-1.1337326h5.0683294v-1.605988z" fill="#1a1918"/><path d="m18.6560898 58.5888224 1.8772036-6.7065869h1.5959641l1.8772036 6.7065869h-1.4619641l-.4152395-1.5113773h-1.6898443l-.4152395 1.5113773z" fill="#1a1918"/><path d="m21.2919581 53.3173653-.5632815 2.6451097h1.2204432z" fill="#fff"/><path d="m8.1908503 56.1349301v-1.7952095c0-1.6998004.56328144-2.6447106 2.2527246-2.6447106 1.8772035 0 2.2527245 1.1337325 2.2527245 2.7393213v1.4171657c0 .8499002-.0938802 1.2279441-.375521 1.7948104l1.1261617.3776447-.0938802.4722555c-3.84828744 0-5.1622096-.0942116-5.1622096-2.3612775" fill="#1a1918"/><path d="m9.59303593 54.4323353v1.6059881c0 1.2279441.18776048 1.6055888.84492217 1.6055888.7510419 0 .8445209-.283034.8445209-1.5113773v-1.7944111c0-1.3225549-.093479-1.5113773-.7506407-1.5113773-.84492213 0-.93880237.3776447-.93880237 1.6055888" fill="#fff"/><path d="m46.4875689 56.7936128c0 1.0391217.6571616 1.8894211 2.1588443 1.8894211 1.2200419 0 2.3466048-.8502994 2.3466048-1.8894211 0-1.6055888-3.0037665-2.3612775-3.0037665-3.4003992 0-.3780439.375521-.5668663.7510419-.5668663.5632815 0 .844521.3780439 1.1261617.944511l.9388024-.3776447c-.0938803-.944511-.7510419-1.7001996-2.1588443-1.7001996-1.1261617 0-2.0649641.566467-2.0649641 1.7001996 0 1.8890219 3.0033653 2.3612774 3.0033653 3.5892215 0 .4726547-.2812395.6614771-.844521.6614771-.5632814 0-.9384012-.3780439-1.1265629-1.0391218z" fill="#1a1918"/><path d="m36.3115928 56.4159681v-2.1728543c0-1.7944112.844521-2.5500998 2.2523234-2.5500998 1.7837245 0 2.2527245.6610778 2.2527245 2.3612774v2.0782435c0 1.7948104-.469 2.550499-2.2527245 2.550499-1.7829222 0-2.2523234-.6610778-2.2523234-2.2670658" fill="#1a1918"/><path d="m37.7157844 54.1493014v2.0782435c0 .944511.0938803 1.4167665.844521 1.4167665.5632814 0 .8449221-.3776447.8449221-1.5113773v-1.9836327c0-.7556886-.0938802-1.4167665-.8449221-1.4167665-.7506407 0-.844521.5668663-.844521 1.4167665" fill="#fff"/><g fill="#1a1918"><path d="m59.0354251 56.1325349c0 1.9836328.5632815 2.550499 2.4404851 2.550499 1.4531377 0 1.8772036-.6858283 1.8772036-1.4171656v-2.1720559h-1.9710839v1.0387225h.6567605v.7556887c0 .5668662-.1873593.8502994-.6567605.8502994-.9388024 0-1.0326826-.6614771-1.0326826-1.6059881v-1.5113772c0-1.1337326.0938802-1.889022 1.0326826-1.889022.6567605 0 1.0322815.4722555 1.1261617 1.1333334l.9384012-.378044c-.093479-1.1333333-.8445209-1.7944111-2.1584431-1.7944111-1.8772036 0-2.2527246 1.0391217-2.2527246 2.4558882z"/><path d="m41.4035928 51.8810379v3.8726547c0 2.2674651.3863533 2.992016 2.3574371 2.992016 1.5016827 0 2.0541318-.8191617 2.0541318-2.8027944v-4.0618763h-1.3143234v3.8726547c0 1.5113773-.0938802 1.8894212-.8445209 1.8894212-.751042 0-.8449222-.5668663-.8449222-1.9836328v-3.7784431z"/><path d="m53.943024 51.8822355v6.7065869h1.1261616v-4.5337326l1.5959641 4.5337326h1.6894431v-6.7065869h-1.1265629v4.1564871l-1.5016826-4.1564871z"/><path d="m14.0459281 51.8810379v4.0618763c0 1.8894211.1877605 2.7393213 2.0649641 2.7393213 2.1588443 0 2.2523234-1.0391217 2.2523234-2.9281437v-3.8730539h-1.3139222v3.9672655c0 1.3225549-.1873593 1.7005988-.8445209 1.7005988-.751042 0-.8449222-.3780439-.8449222-1.8894212v-3.7784431z"/><path d="m31.116485 51.8822355v6.7065869h1.3139222v-3.0223553h1.5955629v3.0223553h1.3139221v-6.7065869h-1.3139221v2.550499h-1.5955629v-2.550499z"/><path d="m3.85029341 51.8822355v6.7065869h3.37888623v-1.0387226h-2.06456287v-1.8894212h1.87720359v-.9445109h-1.87720359v-1.7948104h2.06456287v-1.0391218z"/><path d="m24.6018383 51.8822355v6.7065869h3.0972455v-1.0387226h-1.9710838v-5.6678643z"/><path d="m51.6822754 58.5888224h1.220042v-6.7065869h-1.220042z"/></g></g></svg>