<?xml version="1.0" encoding="UTF-8" standalone="no"?>
<svg width="302px" height="83px" viewBox="0 0 302 83" version="1.1" xmlns="http://www.w3.org/2000/svg" xmlns:xlink="http://www.w3.org/1999/xlink">
    <!-- Generator: Sketch 3.7.2 (28276) - http://www.bohemiancoding.com/sketch -->
    <title>logo</title>
    <desc>Created with Sketch.</desc>
    <defs></defs>
    <g id="Page-1" stroke="none" stroke-width="1" fill="none" fill-rule="evenodd">
        <g id="logo">
            <g id="BJC-2016-Horiz-Logo-REV">
                <polyline id="Fill-1" fill="#1A1918" points="78.013839 3.29233333 2.69707491 3.29233333 2.69707491 80.2626939 78.7411273 80.2626939 78.7411273 3.29233333 78.013839 3.29233333"></polyline>
                <path d="M81.4263258,0.555591837 L0,0.555591837 L0,83 L81.4382022,83 L81.4263258,0.555591837 M80.0469663,2.18623129 L80.0469663,81.3687959 L1.39123596,81.3687959 L1.39123596,2.18623129 L80.0469663,2.18623129" id="Fill-2" fill="#FFFFFF"></path>
                <path d="M19.8686592,70.0666803 L19.8686592,65.0279592 L33.4954195,65.0279592 L33.4954195,63.6305102 L19.8686592,63.6305102 L19.8686592,58.5923537 L33.4388652,58.5923537 L33.4388652,57.1926463 L19.8686592,57.1926463 L19.8686592,52.0901224 L18.422,52.0901224 L18.422,57.1926463 L5.10063296,57.1926463 L5.10063296,58.5923537 L18.422,58.5923537 L18.422,63.6305102 L5.09554307,63.6305102 L5.09554307,65.0279592 L18.422,65.0279592 L18.422,70.0666803 L5.09554307,70.0666803 L5.09554307,71.463 L18.422,71.463 L18.422,77.3492245 L19.8686592,77.3492245 L19.8686592,71.463 L36.4916667,71.463 L36.4916667,70.0666803 L19.8686592,70.0666803" id="Fill-3" fill="#FFFFFF"></path>
                <polygon id="Fill-4" fill="#FFFFFF" points="5.08988764 52.3340408 16.5788951 52.3340408 16.5788951 50.9365918 5.08988764 50.9365918"></polygon>
                <polyline id="Fill-5" fill="#FFFFFF" points="36.2575318 56.7782109 37.4366891 57.2282177 76.3347416 33.2050816 76.3409625 29.6863333 36.2575318 56.7782109"></polyline>
                <polyline id="Fill-6" fill="#FFFFFF" points="37.4395169 63.6265578 37.4395169 65.0279592 76.3409625 50.7700272 76.3409625 47.0062313 37.4395169 63.6265578"></polyline>
                <polyline id="Fill-7" fill="#FFFFFF" points="37.4383858 70.0542585 37.4366891 71.4398503 76.3409625 64.8252585 76.3409625 61.1382517 37.4383858 70.0542585"></polyline>
                <polyline id="Fill-8" fill="#FFFFFF" points="31.4515468 54.9493878 32.6109101 55.3920544 76.3409625 15.2454626 76.3483146 11.6363741 31.4515468 54.9493878"></polyline>
                <polyline id="Fill-9" fill="#FFFFFF" points="27.1211835 53.3029388 28.2398277 53.7286667 72.0213446 6.43108844 67.8470712 6.43108844 27.1211835 53.3029388"></polyline>
                <polyline id="Fill-10" fill="#FFFFFF" points="23.5017079 51.9269456 24.5445693 52.3238776 58.6502097 6.20636735 54.6523858 6.20636735 23.5017079 51.9269456"></polyline>
                <polyline id="Fill-11" fill="#FFFFFF" points="19.9862921 50.5904762 21.0455543 50.9947483 47.0763708 6.20636735 44.0190449 6.20636735 19.9862921 50.5904762"></polyline>
                <polyline id="Fill-12" fill="#FFFFFF" points="8.93501498 46.3874014 10.1288764 46.8430544 16.4499513 6.71509524 14.4694195 6.42995918 8.93501498 46.3874014"></polyline>
                <polyline id="Fill-13" fill="#FFFFFF" points="12.7501685 47.8390544 13.7624906 48.2269524 26.0822809 6.20636735 24.0712097 6.20636735 12.7501685 47.8390544"></polyline>
                <polyline id="Fill-14" fill="#FFFFFF" points="16.3809551 49.2184354 17.4419139 49.6215782 36.4447266 6.20636735 33.6843109 6.20636735 16.3809551 49.2184354"></polyline>
                <polyline id="Fill-15" fill="#D72F32" points="76.3409625 15.2454626 14.4909101 6.43617007 5.1260824 6.43617007 5.1260824 14.2336531 76.3409625 29.6863333 76.3409625 15.2454626"></polyline>
                <polyline id="Fill-16" fill="#D72F32" points="76.3409625 32.0481633 5.1260824 21.3637483 5.1260824 28.2482313 62.7673633 41.4074014 69.7778352 77.0736871 76.3409625 77.0736871 76.3409625 32.0481633"></polyline>
                <polyline id="Fill-17" fill="#D72F32" points="5.1260824 34.8210408 5.1260824 39.5559932 44.0382734 52.9003605 49.2033783 77.0736871 53.1723596 77.0736871 53.1723596 47.5093129 5.1260824 34.8210408"></polyline>
                <polyline id="Fill-18" fill="#D72F32" points="5.1260824 44.9385714 5.1260824 48.5544354 31.2835805 60.2681633 35.0812022 77.0736871 37.4355581 77.0849796 37.4412135 57.2282177 5.1260824 44.9385714"></polyline>
                <path d="M96.8079663,73.1975306 C96.7163483,74.2866939 95.9240225,77.3249456 92.3424382,77.3249456 C88.6686704,77.3249456 87.8231835,74.2866939 87.8231835,72.0648912 C87.8231835,68.6517279 89.201412,66.2091565 92.5075768,66.2091565 C94.053206,66.2091565 96.5857079,66.9623673 96.8266292,70.2586531 L94.2172135,70.2586531 C94.106367,69.5635986 93.7025693,68.4721769 92.5075768,68.5523537 C90.8929513,68.5523537 90.4704906,70.2970476 90.4704906,71.6081088 C90.4704906,72.759381 90.5055543,75.0399048 92.4544157,75.0399048 C93.7591236,75.0399048 94.197985,73.6927075 94.197985,73.1975306 L96.8079663,73.1975306" id="Fill-19" fill="#FFFFFF"></path>
                <path d="M110.947674,77.3249456 C108.320727,77.3249456 105.949404,75.5785578 105.949404,71.7673333 C105.949404,67.9561088 108.320727,66.2091565 110.947674,66.2091565 C113.573491,66.2091565 115.943116,67.9561088 115.943116,71.7673333 C115.943116,75.5785578 113.573491,77.3249456 110.947674,77.3249456 L110.947674,77.3249456 Z M110.947674,68.5523537 C108.962618,68.5523537 108.594449,70.4173129 108.594449,71.7673333 C108.594449,73.1167891 108.962618,74.9828776 110.947674,74.9828776 C112.931599,74.9828776 113.298071,73.1167891 113.298071,71.7673333 C113.298071,70.4173129 112.931599,68.5523537 110.947674,68.5523537 L110.947674,68.5523537 Z" id="Fill-20" fill="#FFFFFF"></path>
                <path d="M133.986202,77.0448912 L131.413547,77.0448912 L131.413547,70.6369524 C131.413547,69.8617211 131.377918,68.5523537 129.741801,68.5523537 C128.60506,68.5523537 127.721682,69.3840476 127.721682,70.9926667 L127.721682,77.0448912 L125.148461,77.0448912 L125.148461,66.4858231 L127.611401,66.4858231 L127.611401,68.0351565 L127.647596,68.0351565 C127.997101,67.3988231 128.73061,66.2091565 130.587854,66.2091565 C132.498258,66.2091565 133.986202,67.4208435 133.986202,69.7414558 L133.986202,77.0448912" id="Fill-21" fill="#FFFFFF"></path>
                <path d="M149.870045,69.7024966 C149.759764,69.0266395 149.539768,68.3129524 148.142311,68.3129524 C146.746551,68.3129524 146.562749,68.89 146.562749,69.3445238 C146.562749,71.0141224 152.680794,69.8018707 152.680794,73.6927075 C152.680794,76.7682245 149.924337,77.3249456 148.399633,77.3249456 C146.177614,77.3249456 143.769532,76.4915578 143.696577,73.6729456 L146.343318,73.6729456 C146.343318,74.5650544 146.856831,75.2188912 148.473719,75.2188912 C149.79709,75.2188912 150.109835,74.524966 150.109835,74.128034 C150.109835,72.3635782 144.045517,73.6927075 144.045517,69.7414558 C144.045517,68.1932517 144.94473,66.2091565 147.995835,66.2091565 C149.905109,66.2091565 152.185378,66.7252245 152.387843,69.7024966 L149.870045,69.7024966" id="Fill-22" fill="#FFFFFF"></path>
                <path d="M167.957809,66.4858231 L169.556034,66.4858231 L169.556034,68.4721769 L167.957809,68.4721769 L167.957809,74.2076463 C167.957809,74.8242177 167.974775,75.0624898 169.023292,75.0624898 C169.1873,75.0624898 169.373363,75.0399048 169.556034,75.0224014 L169.556034,77.1267619 C169.150539,77.1465238 168.746176,77.1651565 168.341813,77.1651565 L168.010404,77.1651565 C165.788951,77.1651565 165.383457,76.2521565 165.383457,74.8835034 L165.383457,68.4721769 L164.063479,68.4721769 L164.063479,66.4858231 L165.383457,66.4858231 L165.383457,63.629381 L167.957809,63.629381 L167.957809,66.4858231" id="Fill-23" fill="#FFFFFF"></path>
                <path d="M182.59067,66.4858231 L185.053045,66.4858231 L185.053045,68.3129524 L185.092067,68.3129524 C185.623112,67.2401633 186.212408,66.2091565 187.772176,66.2091565 C187.939011,66.2091565 188.103584,66.2289184 188.270419,66.2486803 L188.270419,69.0684218 C188.048727,69.0266395 187.772176,69.0266395 187.535779,69.0266395 C185.530929,69.0266395 185.164457,70.3789184 185.164457,71.5488231 L185.164457,77.0448912 L182.59067,77.0448912 L182.59067,66.4858231" id="Fill-24" fill="#FFFFFF"></path>
                <path d="M208.45239,77.0448912 L205.989449,77.0448912 L205.989449,75.5582313 L205.952124,75.5582313 C205.363959,76.6897415 204.337498,77.3249456 202.976801,77.3249456 C201.047734,77.3249456 199.651408,76.1330204 199.651408,73.4346735 L199.651408,66.4858231 L202.223498,66.4858231 L202.223498,73.0377415 C202.223498,74.6638639 203.106311,74.9828776 203.894678,74.9828776 C204.74073,74.9828776 205.879734,74.4656803 205.879734,72.5798299 L205.879734,66.4858231 L208.45239,66.4858231 L208.45239,77.0448912" id="Fill-25" fill="#FFFFFF"></path>
                <path d="M227.156596,73.1975306 C227.064978,74.2866939 226.274914,77.3249456 222.691633,77.3249456 C219.015603,77.3249456 218.171247,74.2866939 218.171247,72.0648912 C218.171247,68.6517279 219.551172,66.2091565 222.858468,66.2091565 C224.399573,66.2091565 226.936034,66.9623673 227.174693,70.2586531 L224.565277,70.2586531 C224.457258,69.5635986 224.051764,68.4721769 222.858468,68.5523537 C221.239884,68.5523537 220.817423,70.2970476 220.817423,71.6081088 C220.817423,72.759381 220.856446,75.0399048 222.802479,75.0399048 C224.106622,75.0399048 224.54718,73.6927075 224.54718,73.1975306 L227.156596,73.1975306" id="Fill-26" fill="#FFFFFF"></path>
                <path d="M242.442094,66.4858231 L244.042581,66.4858231 L244.042581,68.4721769 L242.442094,68.4721769 L242.442094,74.2076463 C242.442094,74.8242177 242.461322,75.0624898 243.507577,75.0624898 C243.674978,75.0624898 243.857648,75.0399048 244.042581,75.0224014 L244.042581,77.1267619 C243.635955,77.1465238 243.234419,77.1651565 242.829491,77.1651565 L242.497517,77.1651565 C240.274367,77.1651565 239.871135,76.2521565 239.871135,74.8835034 L239.871135,68.4721769 L238.546633,68.4721769 L238.546633,66.4858231 L239.871135,66.4858231 L239.871135,63.629381 L242.442094,63.629381 L242.442094,66.4858231" id="Fill-27" fill="#FFFFFF"></path>
                <path d="M258.629633,65.2351769 L261.201157,65.2351769 L261.201157,62.655966 L258.629633,62.655966 L258.629633,65.2351769 Z M258.629633,77.0448912 L261.201157,77.0448912 L261.201157,66.4858231 L258.629633,66.4858231 L258.629633,77.0448912 Z" id="Fill-28" fill="#FFFFFF"></path>
                <path d="M278.536749,77.3249456 C275.909801,77.3249456 273.53961,75.5785578 273.53961,71.7673333 C273.53961,67.9561088 275.909801,66.2091565 278.536749,66.2091565 C281.164262,66.2091565 283.535019,67.9561088 283.535019,71.7673333 C283.535019,75.5785578 281.164262,77.3249456 278.536749,77.3249456 L278.536749,77.3249456 Z M278.536749,68.5523537 C276.552824,68.5523537 276.185787,70.4173129 276.185787,71.7673333 C276.185787,73.1167891 276.552824,74.9828776 278.536749,74.9828776 C280.52124,74.9828776 280.890539,73.1167891 280.890539,71.7673333 C280.890539,70.4173129 280.52124,68.5523537 278.536749,68.5523537 L278.536749,68.5523537 Z" id="Fill-29" fill="#FFFFFF"></path>
                <path d="M301.576974,77.0448912 L299.003753,77.0448912 L299.003753,70.6369524 C299.003753,69.8617211 298.967558,68.5523537 297.331442,68.5523537 C296.191307,68.5523537 295.311888,69.3840476 295.311888,70.9926667 L295.311888,77.0448912 L292.739232,77.0448912 L292.739232,66.4858231 L295.201607,66.4858231 L295.201607,68.0351565 L295.236105,68.0351565 C295.586742,67.3988231 296.321948,66.2091565 298.176929,66.2091565 C300.086202,66.2091565 301.576974,67.4208435 301.576974,69.7414558 L301.576974,77.0448912" id="Fill-30" fill="#FFFFFF"></path>
                <path d="M178.296502,20.8538912 L178.296502,43.0307007 C178.296502,47.1332721 177.001974,47.660068 175.877109,47.660068 C174.831419,47.660068 173.630772,47.1648912 173.630772,43.3186599 L173.630772,40.8139796 L170.642442,40.8139796 L170.642442,44.1774558 C170.642442,47.9435102 172.05121,51.9653401 175.9987,51.9653401 C177.632554,51.9653401 181.427914,51.072102 181.427914,42.7839592 L181.427914,20.8538912 L178.296502,20.8538912" id="Fill-31" fill="#FFFFFF"></path>
                <path d="M194.492524,20.0741429 C187.456603,20.0741429 185.579,30.0985102 185.579,36.0208707 C185.579,41.942102 187.456603,51.9653401 194.492524,51.9653401 C201.526749,51.9653401 203.404352,41.942102 203.404352,36.0208707 C203.404352,30.0985102 201.526749,20.0741429 194.492524,20.0741429 L194.492524,20.0741429 Z M194.492524,47.5358503 C191.078906,47.5358503 188.785064,42.9076122 188.785064,36.0208707 C188.785064,29.133 191.078906,24.5053265 194.492524,24.5053265 C197.905577,24.5053265 200.197723,29.133 200.197723,36.0208707 C200.197723,42.9076122 197.905577,47.5358503 194.492524,47.5358503 L194.492524,47.5358503 Z" id="Fill-32" fill="#FFFFFF"></path>
                <path d="M219.179045,20.8538912 L219.179045,33.0266599 L210.810704,33.0266599 L210.810704,20.8538912 L207.678161,20.8538912 L207.678161,51.1867211 L210.810704,51.1867211 L210.810704,37.4572789 L219.179045,37.4572789 L219.179045,51.1867211 L222.310457,51.1867211 L222.310457,20.8538912 L219.179045,20.8538912" id="Fill-33" fill="#FFFFFF"></path>
                <path d="M239.060146,20.8538912 L239.060146,43.0295714 C237.891734,39.8512925 230.900491,20.8538912 230.900491,20.8538912 L227.464251,20.8538912 L227.464251,51.1867211 L230.521577,51.1867211 L230.521577,28.9856327 C231.693948,32.1147891 238.829404,51.1867211 238.829404,51.1867211 L242.119169,51.1867211 L242.119169,20.8538912 L239.060146,20.8538912" id="Fill-34" fill="#FFFFFF"></path>
                <path d="M257.060251,34.3207823 C257.057989,34.3196531 252.063112,32.3942789 252.063112,32.3942789 C251.172948,32.0374354 250.256202,31.3627075 250.256202,29.0940408 C250.256202,25.1992517 252.220333,24.3822381 253.868326,24.3822381 C254.760753,24.3822381 257.682348,24.7819932 257.821472,29.9274286 L257.831652,30.3661429 L260.820547,30.3661429 L260.805843,29.8975034 C260.611296,23.3800272 258.187378,20.0741429 253.600824,20.0741429 C248.874015,20.0741429 247.19718,25.2207075 247.19718,29.6270476 C247.19718,33.4122993 248.577105,35.9548095 251.188217,36.9824286 L254.769236,38.3759252 C257.586206,39.5012245 258.236015,40.3944626 258.236015,43.150966 C258.236015,47.0734218 255.605674,47.660068 254.03912,47.660068 C252.703873,47.660068 249.599041,47.0327687 249.599041,41.2255918 L249.599041,40.7738912 L246.611843,40.7738912 L246.611843,41.2255918 C246.611843,43.7805238 246.838625,46.4850816 248.47361,48.9615306 C249.446345,50.4481905 250.872079,51.9653401 254.062307,51.9653401 C257.558494,51.9653401 261.293906,49.5114762 261.293906,42.6190884 C261.293906,37.152381 258.992146,35.0892381 257.060251,34.3207823" id="Fill-35" fill="#FFFFFF"></path>
                <path d="M273.748861,20.0741429 C266.715202,20.0741429 264.837599,30.0985102 264.837599,36.0208707 C264.837599,41.942102 266.715202,51.9653401 273.748861,51.9653401 C280.785348,51.9653401 282.66182,41.942102 282.66182,36.0208707 C282.66182,30.0985102 280.785348,20.0741429 273.748861,20.0741429 L273.748861,20.0741429 Z M273.748861,47.5358503 C270.33694,47.5358503 268.043663,42.9076122 268.043663,36.0208707 C268.043663,29.133 270.33694,24.5053265 273.748861,24.5053265 C277.162479,24.5053265 279.455757,29.133 279.455757,36.0208707 C279.455757,42.9076122 277.162479,47.5358503 273.748861,47.5358503 L273.748861,47.5358503 Z" id="Fill-36" fill="#FFFFFF"></path>
                <path d="M301.185052,20.8538912 L298.509468,20.8538912 L298.509468,43.0261837 C297.33936,39.8462109 290.351509,20.8538912 290.351509,20.8538912 L286.911311,20.8538912 L286.911311,51.1867211 L289.970899,51.1867211 L289.970899,28.9822449 C291.141007,32.111966 298.278727,51.1867211 298.278727,51.1867211 L301.568491,51.1867211 L301.568491,20.8538912 L301.185052,20.8538912" id="Fill-37" fill="#FFFFFF"></path>
                <polyline id="Fill-38" fill="#D72F32" points="141.80936 31.6433265 145.164727 34.6172109 156.378315 37.3031361 162.027524 51.3092449 163.176708 51.3092449 163.176708 32.9871361 141.80936 31.6433265"></polyline>
                <polygon id="Fill-39" fill="#FFFFFF" points="122.156738 51.2708503 127.692273 51.2708503 127.692273 6.92739456 122.156738 6.92739456"></polygon>
                <path d="M93.2252509,46.1417891 L104.735749,46.1417891 C110.352723,46.1417891 113.189487,42.9923061 113.189487,38.0540884 C113.189487,31.8155374 108.240985,30.5807007 103.847281,30.5807007 L93.2252509,30.5807007 L93.2252509,25.7017687 L102.956551,25.7017687 C108.129007,25.7017687 111.298311,23.9723197 111.298311,18.5366667 C111.298311,14.3996531 109.018607,12.053068 103.01367,12.053068 L93.2252509,12.053068 L87.8316667,6.92739456 L105.404221,6.92739456 C112.856382,6.92739456 116.691895,12.053068 116.691895,18.1052925 C116.691895,21.0063401 115.746307,25.084068 111.353169,27.3696735 C113.967109,28.5407075 118.584202,30.5807007 118.584202,38.1771769 C118.584202,45.2790408 113.857393,51.2708503 105.014562,51.2708503 L87.8316667,51.2708503 L93.2252509,46.1417891" id="Fill-40" fill="#FFFFFF"></path>
                <path d="M134.472569,16.0094014 C136.999416,13.0055918 140.487685,11.4319796 144.322633,11.4319796 C148.998543,11.4319796 155.213861,13.0055918 157.048483,20.5681905 L162.612861,20.5681905 C161.370929,10.8278299 152.550154,6.23064626 144.616715,6.23064626 C140.61267,6.23064626 137.242599,7.23229252 134.472569,8.90527891 L134.472569,16.0094014" id="Fill-41" fill="#FFFFFF"></path>
                <path d="M156.108551,40.8839932 C155.417457,42.0663197 154.493925,43.1622585 153.261041,44.1622109 C150.123408,46.7041565 146.688865,46.9469456 144.557899,46.9469456 C139.87803,46.9469456 136.651607,45.3863197 134.472569,42.9369728 L134.472569,49.6452925 C136.680449,50.9411088 139.738341,51.9653401 144.204434,51.9653401 C149.844596,51.9653401 155.030625,49.4448503 157.982195,45.5223946 L156.108551,40.8839932" id="Fill-42" fill="#FFFFFF"></path>
                <polygon id="Fill-43" fill="#D72F32" points="87.8124382 60.6001633 301.587719 60.6001633 301.587719 57.5511837 87.8124382 57.5511837"></polygon>
            </g>
        </g>
    </g>
</svg>