<svg height="83" viewBox="0 0 302 83" width="302" xmlns="http://www.w3.org/2000/svg"><g fill="none" fill-rule="evenodd"><path d="m78.013839 3.29233333h-75.31676409v76.97036057h76.04405239v-76.97036057z" fill="#1a1918"/><path d="m81.4263258.55559184h-81.4263258v82.44440816h81.4382022zm-1.3793595 1.63063945v79.18256461h-78.65573034v-79.18256461z" fill="#fff"/><path d="m19.8686592 70.0666803v-5.0387211h13.6267603v-1.397449h-13.6267603v-5.0381565h13.570206v-1.3997074h-13.570206v-5.1025239h-1.4466592v5.1025239h-13.32136704v1.3997074h13.32136704v5.0381565h-13.32645693v1.397449h13.32645693v5.0387211h-13.32645693v1.3963197h13.32645693v5.8862245h1.4466592v-5.8862245h16.6230075v-1.3963197z" fill="#fff"/><path d="m5.08988764 52.3340408h11.48900746v-1.397449h-11.48900746z" fill="#fff"/><path d="m36.2575318 56.7782109 1.1791573.4500068 38.8980525-24.0231361.0062209-3.5187483z" fill="#fff"/><path d="m37.4395169 63.6265578v1.4014014l38.9014456-14.257932v-3.7637959z" fill="#fff"/><path d="m37.4383858 70.0542585-.0016967 1.3855918 38.9042734-6.6145918v-3.6870068z" fill="#fff"/><path d="m31.4515468 54.9493878 1.1593633.4426666 43.7300524-40.1465918.0073521-3.6090885z" fill="#fff"/><path d="m27.1211835 53.3029388 1.1186442.4257279 43.7815169-47.29757826h-4.1742734z" fill="#fff"/><path d="m23.5017079 51.9269456 1.0428614.396932 34.1056404-46.11751025h-3.9978239z" fill="#fff"/><path d="m19.9862921 50.5904762 1.0592622.4042721 26.0308165-44.78838095h-3.0573259z" fill="#fff"/><path d="m8.93501498 46.3874014 1.19386142.455653 6.3210749-40.12795916-1.9805318-.28513606z" fill="#fff"/><path d="m12.7501685 47.8390544 1.0123221.387898 12.3197903-42.02058505h-2.0110712z" fill="#fff"/><path d="m16.3809551 49.2184354 1.0609588.4031428 19.0028127-43.41521085h-2.7604157z" fill="#fff"/><path d="m76.3409625 15.2454626-61.8500524-8.80929253h-9.3648277v7.79748303l71.2148801 15.4526802z" fill="#d72f32"/><path d="m76.3409625 32.0481633-71.2148801-10.684415v6.884483l57.6412809 13.1591701 7.0104719 35.6662857h6.5631273z" fill="#d72f32"/><path d="m5.1260824 34.8210408v4.7349524l38.912191 13.3443673 5.1651049 24.1733266h3.9689813v-29.5643742z" fill="#d72f32"/><path d="m5.1260824 44.9385714v3.615864l26.1574981 11.7137279 3.7976217 16.8055238 2.3543559.0112925.0056554-19.8567619z" fill="#d72f32"/><g fill="#fff"><path d="m96.8079663 73.1975306c-.091618 1.0891633-.8839438 4.127415-4.4655281 4.127415-3.6737678 0-4.5192547-3.0382517-4.5192547-5.2600544 0-3.4131633 1.3782285-5.8557347 4.6843933-5.8557347 1.5456292 0 4.0781311.7532108 4.3190524 4.0494966h-2.6094157c-.1108465-.6950545-.5146442-1.7864762-1.7096367-1.7062994-1.6146255 0-2.0370862 1.7446939-2.0370862 3.0557551 0 1.1512722.0350637 3.431796 1.9839251 3.431796 1.3047079 0 1.7435693-1.3471973 1.7435693-1.8423742z"/><path d="m110.947674 77.3249456c-2.626947 0-4.99827-1.7463878-4.99827-5.5576123s2.371323-5.5581768 4.99827-5.5581768c2.625817 0 4.995442 1.7469523 4.995442 5.5581768s-2.369625 5.5576123-4.995442 5.5576123zm0-8.7725919c-1.985056 0-2.353225 1.8649592-2.353225 3.2149796 0 1.3494558.368169 3.2155443 2.353225 3.2155443 1.983925 0 2.350397-1.8660885 2.350397-3.2155443 0-1.3500204-.366472-3.2149796-2.350397-3.2149796z"/><path d="m133.986202 77.0448912h-2.572655v-6.4079388c0-.7752313-.035629-2.0845987-1.671746-2.0845987-1.136741 0-2.020119.8316939-2.020119 2.440313v6.0522245h-2.573221v-10.5590681h2.46294v1.5493334h.036195c.349505-.6363334 1.083014-1.826 2.940258-1.826 1.910404 0 3.398348 1.211687 3.398348 3.5322993z"/><path d="m149.870045 69.7024966c-.110281-.6758571-.330277-1.3895442-1.727734-1.3895442-1.39576 0-1.579562.5770476-1.579562 1.0315714 0 1.6695986 6.118045.4573469 6.118045 4.3481837 0 3.075517-2.756457 3.6322381-4.281161 3.6322381-2.222019 0-4.630101-.8333878-4.703056-3.652h2.646741c0 .8921088.513513 1.5459456 2.130401 1.5459456 1.323371 0 1.636116-.6939252 1.636116-1.0908572 0-1.7644558-6.064318-.4353265-6.064318-4.3865782 0-1.5482041.899213-3.5322993 3.950318-3.5322993 1.909274 0 4.189543.516068 4.392008 3.4933401z"/><path d="m167.957809 66.4858231h1.598225v1.9863538h-1.598225v5.7354694c0 .6165714.016966.8548435 1.065483.8548435.164008 0 .350071-.022585.532742-.0400884v2.1043605c-.405495.0197619-.809858.0383946-1.214221.0383946h-.331409c-2.221453 0-2.626947-.913-2.626947-2.2816531v-6.4113265h-1.319978v-1.9863538h1.319978v-2.8564421h2.574352z"/><path d="m182.59067 66.4858231h2.462375v1.8271293h.039022c.531045-1.0727891 1.120341-2.1037959 2.680109-2.1037959.166835 0 .331408.0197619.498243.0395238v2.8197415c-.221692-.0417823-.498243-.0417823-.73464-.0417823-2.00485 0-2.371322 1.3522789-2.371322 2.5221836v5.4960681h-2.573787z"/><path d="m208.45239 77.0448912h-2.462941v-1.4866599h-.037325c-.588165 1.1315102-1.614626 1.7667143-2.975323 1.7667143-1.929067 0-3.325393-1.1919252-3.325393-3.8902721v-6.9488504h2.57209v6.5519184c0 1.6261224.882813 1.9451361 1.67118 1.9451361.846052 0 1.985056-.5171973 1.985056-2.4030477v-6.0940068h2.572656z"/><path d="m227.156596 73.1975306c-.091618 1.0891633-.881682 4.127415-4.464963 4.127415-3.67603 0-4.520386-3.0382517-4.520386-5.2600544 0-3.4131633 1.379925-5.8557347 4.687221-5.8557347 1.541105 0 4.077566.7532108 4.316225 4.0494966h-2.609416c-.108019-.6950545-.513513-1.7864762-1.706809-1.7062994-1.618584 0-2.041045 1.7446939-2.041045 3.0557551 0 1.1512722.039023 3.431796 1.985056 3.431796 1.304143 0 1.744701-1.3471973 1.744701-1.8423742z"/><path d="m242.442094 66.4858231h1.600487v1.9863538h-1.600487v5.7354694c0 .6165714.019228.8548435 1.065483.8548435.167401 0 .350071-.022585.535004-.0400884v2.1043605c-.406626.0197619-.808162.0383946-1.21309.0383946h-.331974c-2.22315 0-2.626382-.913-2.626382-2.2816531v-6.4113265h-1.324502v-1.9863538h1.324502v-2.8564421h2.570959z"/><path d="m258.629633 65.2351769h2.571524v-2.5792109h-2.571524zm0 11.8097143h2.571524v-10.5590681h-2.571524z"/><path d="m278.536749 77.3249456c-2.626948 0-4.997139-1.7463878-4.997139-5.5576123s2.370191-5.5581768 4.997139-5.5581768c2.627513 0 4.99827 1.7469523 4.99827 5.5581768s-2.370757 5.5576123-4.99827 5.5576123zm0-8.7725919c-1.983925 0-2.350962 1.8649592-2.350962 3.2149796 0 1.3494558.367037 3.2155443 2.350962 3.2155443 1.984491 0 2.35379-1.8660885 2.35379-3.2155443 0-1.3500204-.369299-3.2149796-2.35379-3.2149796z"/><path d="m301.576974 77.0448912h-2.573221v-6.4079388c0-.7752313-.036195-2.0845987-1.672311-2.0845987-1.140135 0-2.019554.8316939-2.019554 2.440313v6.0522245h-2.572656v-10.5590681h2.462375v1.5493334h.034498c.350637-.6363334 1.085843-1.826 2.940824-1.826 1.909273 0 3.400045 1.211687 3.400045 3.5322993z"/><path d="m178.296502 20.8538912v22.1768095c0 4.1025714-1.294528 4.6293673-2.419393 4.6293673-1.04569 0-2.246337-.4951768-2.246337-4.3414081v-2.5046803h-2.98833v3.3634762c0 3.7660544 1.408768 7.7878843 5.356258 7.7878843 1.633854 0 5.429214-.8932381 5.429214-9.1813809v-21.930068z"/><path d="m194.492524 20.0741429c-7.035921 0-8.913524 10.0243673-8.913524 15.9467278 0 5.9212313 1.877603 15.9444694 8.913524 15.9444694 7.034225 0 8.911828-10.0232381 8.911828-15.9444694 0-5.9223605-1.877603-15.9467278-8.911828-15.9467278zm0 27.4617074c-3.413618 0-5.70746-4.6282381-5.70746-11.5149796 0-6.8878707 2.293842-11.5155442 5.70746-11.5155442 3.413053 0 5.705199 4.6276735 5.705199 11.5155442 0 6.8867415-2.292146 11.5149796-5.705199 11.5149796z"/><path d="m219.179045 20.8538912v12.1727687h-8.368341v-12.1727687h-3.132543v30.3328299h3.132543v-13.7294422h8.368341v13.7294422h3.131412v-30.3328299z"/><path d="m239.060146 20.8538912v22.1756802c-1.168412-3.1782789-8.159655-22.1756802-8.159655-22.1756802h-3.43624v30.3328299h3.057326v-22.2010884c1.172371 3.1291564 8.307827 22.2010884 8.307827 22.2010884h3.289765v-30.3328299z"/><path d="m257.060251 34.3207823c-.002262-.0011292-4.997139-1.9265034-4.997139-1.9265034-.890164-.3568435-1.80691-1.0315714-1.80691-3.3002381 0-3.8947891 1.964131-4.7118027 3.612124-4.7118027.892427 0 3.814022.3997551 3.953146 5.5451905l.01018.4387143h2.988895l-.014704-.4686395c-.194547-6.5174762-2.618465-9.8233605-7.205019-9.8233605-4.726809 0-6.403644 5.1465646-6.403644 9.5529047 0 3.7852517 1.379925 6.3277619 3.991037 7.355381l3.581019 1.3934966c2.81697 1.1252993 3.466779 2.0185374 3.466779 4.7750408 0 3.9224558-2.630341 4.509102-4.196895 4.509102-1.335247 0-4.440079-.6272993-4.440079-6.4344762v-.4517006h-2.987198v.4517006c0 2.554932.226782 5.2594898 1.861767 7.7359388.972735 1.4866599 2.398469 3.0038095 5.588697 3.0038095 3.496187 0 7.231599-2.4538639 7.231599-9.3462517 0-5.4667074-2.30176-7.5298503-4.233655-8.2983061"/><path d="m273.748861 20.0741429c-7.033659 0-8.911262 10.0243673-8.911262 15.9467278 0 5.9212313 1.877603 15.9444694 8.911262 15.9444694 7.036487 0 8.912959-10.0232381 8.912959-15.9444694 0-5.9223605-1.876472-15.9467278-8.912959-15.9467278zm0 27.4617074c-3.411921 0-5.705198-4.6282381-5.705198-11.5149796 0-6.8878707 2.293277-11.5155442 5.705198-11.5155442 3.413618 0 5.706896 4.6276735 5.706896 11.5155442 0 6.8867415-2.293278 11.5149796-5.706896 11.5149796z"/><path d="m301.185052 20.8538912h-2.675584v22.1722925c-1.170108-3.1799728-8.157959-22.1722925-8.157959-22.1722925h-3.440198v30.3328299h3.059588v-22.2044762c1.170108 3.1297211 8.307828 22.2044762 8.307828 22.2044762h3.289764v-30.3328299z"/></g><path d="m141.80936 31.6433265 3.355367 2.9738844 11.213588 2.6859252 5.649209 14.0061088h1.149184v-18.3221088z" fill="#d72f32"/><path d="m122.156738 51.2708503h5.535535v-44.34345574h-5.535535z" fill="#fff"/><path d="m93.2252509 46.1417891h11.5104981c5.616974 0 8.453738-3.149483 8.453738-8.0877007 0-6.238551-4.948502-7.4733877-9.342206-7.4733877h-10.6220301v-4.878932h9.7313001c5.172456 0 8.34176-1.729449 8.34176-7.165102 0-4.1370136-2.279704-6.4835987-8.284641-6.4835987h-9.7884191l-5.3935842-5.12567344h17.5725543c7.452161 0 11.287674 5.12567344 11.287674 11.17789794 0 2.9010476-.945588 6.9787755-5.338726 9.264381 2.61394 1.171034 7.231033 3.2110272 7.231033 10.8075034 0 7.1018639-4.726809 13.0936734-13.56964 13.0936734h-17.1828953z" fill="#fff"/><path d="m134.472569 16.0094014c2.526847-3.0038096 6.015116-4.5774218 9.850064-4.5774218 4.67591 0 10.891228 1.5736122 12.72585 9.1362109h5.564378c-1.241932-9.7403606-10.062707-14.33754424-17.996146-14.33754424-4.004045 0-7.374116 1.00164626-10.144146 2.67463265z" fill="#fff"/><path d="m156.108551 40.8839932c-.691094 1.1823265-1.614626 2.2782653-2.84751 3.2782177-3.137633 2.5419456-6.572176 2.7847347-8.703142 2.7847347-4.679869 0-7.906292-1.5606259-10.08533-4.0099728v6.7083197c2.20788 1.2958163 5.265772 2.3200476 9.731865 2.3200476 5.640162 0 10.826191-2.5204898 13.777761-6.4429455z" fill="#fff"/><path d="m87.8124382 60.6001633h213.7752808v-3.0489796h-213.7752808z" fill="#d72f32"/></g></svg>