<svg height="12" viewBox="0 0 12 12" width="12" xmlns="http://www.w3.org/2000/svg"><path d="m2.4 5.2c.93333333 1.86666667 2.53333333 3.4 4.4 4.4l1.46666667-1.46666667c.2-.2.46666666-.26666666.66666666-.13333333.73333334.26666667 1.53333337.4 2.39999997.4.4 0 .6666667.26666667.6666667.66666667v2.26666663c0 .4-.2666667.6666667-.6666667.6666667-6.26666663 0-11.3333333-5.06666667-11.3333333-11.33333333 0-.4.26666667-.66666667.66666667-.66666667h2.33333333c.4 0 .66666667.26666667.66666667.66666667 0 .8.13333333 1.6.4 2.4.06666666.2 0 .46666666-.13333334.66666666z" fill="#1d68b8" fill-rule="evenodd"/></svg>